<svg width="20" height="20" viewBox="0 0 20 20" fill="none" xmlns="http://www.w3.org/2000/svg">
<path fill-rule="evenodd" clip-rule="evenodd" d="M10.6317 0.526317C10.6317 0.235641 10.396 0 10.1053 0C9.81466 0 9.57902 0.235641 9.57902 0.526317V4C9.57902 4.29068 9.81466 4.52632 10.1053 4.52632C10.396 4.52632 10.6317 4.29068 10.6317 4V0.526317ZM17.0128 16.7097C16.7652 16.5573 16.441 16.6345 16.2887 16.8821C16.1363 17.1296 16.2135 17.4538 16.4611 17.6061L19.1979 19.2903C19.4455 19.4427 19.7697 19.3655 19.922 19.1179C20.0743 18.8704 19.9972 18.5462 19.7496 18.3939L17.0128 16.7097ZM3.71147 16.8821C3.55913 16.6345 3.23495 16.5573 2.98739 16.7097L0.250549 18.3939C0.00299213 18.5462 -0.0741942 18.8704 0.0781486 19.1179C0.230491 19.3655 0.554674 19.4427 0.802231 19.2903L3.53907 17.6061C3.78663 17.4538 3.86382 17.1296 3.71147 16.8821ZM10.3913 5.83807C10.1716 5.6932 9.8914 5.67644 9.65606 5.79411L6.39628 7.42399C6.13629 7.55398 6.03091 7.87012 6.1609 8.13011C6.2909 8.3901 6.60704 8.49548 6.86703 8.36549L9.96382 6.81711L13.9708 9.45998L9.71366 12.0994L5.61676 9.00395C5.12226 8.63032 4.41548 8.99696 4.43613 9.61639L4.62899 15.402C4.63564 15.6016 4.72299 15.7899 4.87106 15.9239L9.22591 19.864C9.40661 20.0275 9.67591 20.0455 9.87683 19.9076L15.1539 16.2862C15.3541 16.1487 15.4738 15.9215 15.4738 15.6786L15.4738 9.47369C15.4738 9.2968 15.3849 9.13174 15.2372 9.03434L10.3913 5.83807ZM10.0843 13.1081L14.4211 10.4193L14.4211 15.5123L10.1053 18.4741V14.9474C10.1053 14.6567 9.8697 14.4211 9.57902 14.4211C9.28835 14.4211 9.05271 14.6567 9.05271 14.9474V18.2877L5.67657 15.2331L5.51023 10.2428L9.25185 13.0698C9.49477 13.2533 9.82555 13.2685 10.0843 13.1081Z" fill="black"/>
</svg>
